<?xml version="1.0" standalone="no"?>
<!DOCTYPE svg PUBLIC "-//W3C//DTD SVG 20010904//EN"
 "http://www.w3.org/TR/2001/REC-SVG-20010904/DTD/svg10.dtd">
<svg version="1.0" xmlns="http://www.w3.org/2000/svg"
 width="1024.000000pt" height="768.000000pt" viewBox="0 0 1024.000000 768.000000"
 preserveAspectRatio="xMidYMid meet">

<g transform="translate(0.000000,768.000000) scale(0.100000,-0.100000)"
fill="#ffffff" stroke="none">
<path d="M4500 7179 c-344 -25 -791 -80 -955 -119 -205 -48 -275 -105 -275
-223 0 -128 84 -227 192 -227 l35 0 7 -67 c18 -195 133 -482 288 -720 99 -151
245 -312 494 -543 340 -316 510 -488 535 -544 54 -124 -28 -262 -308 -518
-340 -311 -599 -601 -715 -803 -137 -237 -194 -419 -206 -660 l-7 -130 -40 -3
c-432 -31 -1188 -144 -1550 -231 -108 -27 -337 -102 -440 -146 -186 -79 -377
-201 -425 -270 -64 -94 -88 -260 -55 -383 38 -141 94 -215 253 -334 50 -38 92
-73 92 -79 0 -6 5 -7 12 -3 7 5 8 3 3 -5 -9 -16 32 -61 57 -61 10 0 18 -4 18
-10 0 -5 5 -10 11 -10 6 0 29 -15 52 -33 39 -31 225 -129 253 -133 7 -1 32
-15 56 -31 75 -50 156 -83 298 -123 25 -7 54 -16 65 -20 113 -45 157 -56 455
-110 63 -11 134 -25 158 -30 23 -6 54 -10 67 -10 14 0 33 -4 43 -10 51 -28
246 -70 397 -85 33 -3 75 -8 93 -11 18 -3 32 -1 32 5 0 6 -15 12 -32 15 -153
23 -283 48 -297 57 -13 8 -11 9 9 5 14 -3 72 -12 130 -21 58 -9 137 -22 175
-30 86 -17 221 -36 700 -95 44 -6 157 -17 250 -25 94 -8 211 -20 260 -25 50
-5 146 -12 215 -15 69 -3 162 -8 208 -11 50 -3 88 -1 96 5 28 23 338 52 350
32 9 -15 41 -14 58 2 7 6 21 13 30 13 9 1 68 5 130 8 102 7 184 14 363 31 121
12 220 28 233 38 7 5 56 12 110 14 53 2 132 8 174 14 42 6 80 9 86 6 5 -4 22
-2 38 3 l29 10 -32 -3 c-18 -2 -30 0 -28 4 4 6 40 12 162 26 29 3 50 9 47 14
-3 5 19 9 48 9 29 0 87 7 128 16 69 14 204 34 240 35 8 1 30 7 48 15 18 8 37
12 42 9 14 -9 263 46 295 64 10 6 101 27 158 36 15 3 36 9 47 15 10 5 29 10
42 10 22 1 22 1 4 15 -18 13 -16 14 17 12 37 -3 64 -17 33 -17 -9 0 -14 -4
-11 -10 10 -17 32 -11 38 10 3 13 0 20 -9 20 -24 0 -16 20 9 21 15 1 17 3 5 6
-9 2 -30 -3 -46 -11 -16 -8 -32 -13 -34 -10 -6 6 -122 -20 -190 -42 -26 -9
-55 -14 -64 -12 -19 3 177 64 396 123 133 35 176 49 205 63 55 27 60 29 73 25
6 -3 12 -14 12 -25 0 -18 4 -16 30 13 35 40 40 62 7 31 -25 -24 -37 -28 -37
-12 0 12 49 34 68 31 6 -1 16 8 21 21 5 13 21 34 35 47 14 14 26 28 26 32 0 4
10 20 23 34 43 53 71 76 85 70 12 -5 13 -3 2 10 -10 11 -15 13 -20 4 -5 -7
-10 -8 -14 -1 -3 5 11 22 32 38 80 60 157 150 194 225 46 95 61 163 61 269 -1
296 -252 480 -858 629 -406 100 -802 169 -1240 215 -82 9 -174 19 -202 22
l-53 5 0 59 c0 145 -46 353 -117 525 -135 332 -314 554 -799 992 -298 269
-330 311 -322 426 7 107 42 161 212 336 83 84 257 254 386 376 342 324 495
501 589 686 56 110 121 302 149 439 l19 95 47 14 c72 22 130 83 151 155 32
111 3 209 -77 262 -68 46 -204 76 -608 134 -315 46 -412 51 -1020 55 -322 2
-641 -1 -710 -6z m1130 -29 c282 -11 401 -23 735 -71 210 -30 332 -56 406 -86
41 -16 87 -67 70 -77 -5 -4 -12 2 -15 12 -4 10 -25 28 -49 39 -50 25 -175 54
-205 48 -12 -2 -22 1 -22 7 0 6 -13 8 -36 3 -27 -5 -34 -3 -28 6 5 9 -1 10
-20 7 -15 -3 -44 -2 -64 3 -20 4 -82 15 -137 23 -55 9 -117 19 -137 22 -22 4
-38 3 -38 -3 0 -5 69 -20 153 -33 83 -13 154 -24 157 -25 3 -1 30 -5 60 -9 77
-11 273 -57 284 -67 5 -4 -9 -4 -30 1 -22 5 -84 15 -139 24 -55 8 -172 27
-260 41 -510 83 -763 101 -1290 90 -209 -4 -447 -13 -530 -20 -138 -12 -142
-13 -46 -10 61 1 98 -1 90 -6 -8 -5 -41 -9 -75 -9 -88 0 -305 -18 -494 -40
-401 -48 -579 -99 -563 -160 9 -35 69 -53 197 -58 160 -7 121 -19 -78 -26 -86
-3 -161 -8 -166 -11 -17 -10 -11 -25 19 -56 38 -37 23 -38 -17 -1 -35 33 -56
100 -48 147 22 116 126 162 486 214 323 47 519 65 915 84 156 8 677 6 915 -3z
m-75 -79 l160 -8 -166 -2 c-209 -1 -572 11 -540 19 29 7 317 2 546 -9z m-857
2 c-16 -2 -40 -2 -55 0 -16 2 -3 4 27 4 30 0 43 -2 28 -4z m140 0 c-10 -2 -26
-2 -35 0 -10 3 -2 5 17 5 19 0 27 -2 18 -5z m59 1 c-3 -3 -12 -4 -19 -1 -8 3
-5 6 6 6 11 1 17 -2 13 -5z m60 0 c-3 -3 -12 -4 -19 -1 -8 3 -5 6 6 6 11 1 17
-2 13 -5z m861 -21 c-10 -2 -26 -2 -35 0 -10 3 -2 5 17 5 19 0 27 -2 18 -5z
m245 -40 c-7 -2 -19 -2 -25 0 -7 3 -2 5 12 5 14 0 19 -2 13 -5z m-422 -22 c14
-5 -3 -8 -50 -8 -39 -1 -71 2 -71 5 0 10 97 13 121 3z m125 -16 c4 -8 15 -15
26 -15 10 0 16 5 13 10 -8 13 8 13 21 1 5 -5 44 -11 86 -14 42 -3 81 -8 87
-11 5 -3 42 -9 83 -12 40 -4 75 -8 77 -10 8 -7 -61 -4 -174 7 -60 6 -135 12
-165 13 -30 2 -64 4 -75 5 l-20 2 20 8 c16 7 12 10 -25 19 l-45 10 43 1 c29 1
44 -4 48 -14z m-455 -13 c-24 -2 -47 0 -52 5 -4 4 15 6 44 3 l52 -5 -44 -3z
m114 8 c3 -5 1 -10 -4 -10 -6 0 -11 5 -11 10 0 6 2 10 4 10 3 0 8 -4 11 -10z
m123 -6 c-10 -10 -60 -12 -87 -4 -20 6 -12 8 33 9 33 1 57 -2 54 -5z m110 -11
c-10 -2 -28 -2 -40 0 -13 2 -5 4 17 4 22 1 32 -1 23 -4z m679 1 c-3 -3 -12 -4
-19 -1 -8 3 -5 6 6 6 11 1 17 -2 13 -5z m40 0 c-3 -3 -12 -4 -19 -1 -8 3 -5 6
6 6 11 1 17 -2 13 -5z m-2177 -104 c-322 -34 -384 -34 -116 0 77 10 173 18
211 18 50 0 24 -5 -95 -18z m2657 -27 c-3 -10 -5 -4 -5 12 0 17 2 24 5 18 2
-7 2 -21 0 -30z m-2970 -9 c-3 -3 -12 -4 -19 -1 -8 3 -5 6 6 6 11 1 17 -2 13
-5z m-79 -11 c-16 -2 -40 -2 -55 0 -16 2 -3 4 27 4 30 0 43 -2 28 -4z m1212
-13 c-206 -4 -429 -10 -495 -14 -151 -9 -556 -45 -565 -51 -3 -2 -50 -11 -104
-20 -56 -9 -104 -22 -113 -31 -9 -8 -22 -13 -30 -10 -8 3 -22 6 -31 7 -43 1
89 35 238 60 149 25 405 52 610 62 30 2 237 3 460 3 l405 1 -375 -7z m630 -10
c34 -5 -3 -6 -95 -3 -82 3 -152 7 -154 9 -8 7 194 2 249 -6z m-190 -20 c200
-12 568 -45 665 -59 133 -20 490 -83 495 -87 2 -3 -3 -50 -13 -106 -9 -56 -16
-103 -14 -105 2 -2 12 32 22 74 29 133 35 153 45 153 35 0 23 -115 -30 -297
-63 -211 -124 -331 -259 -500 -99 -125 -359 -389 -611 -620 -280 -256 -389
-380 -426 -484 -22 -63 -18 -145 10 -204 34 -71 72 -112 310 -329 384 -352
557 -552 707 -813 178 -313 246 -664 183 -941 -20 -91 -66 -174 -131 -238
-180 -177 -403 -251 -898 -299 -287 -28 -668 -12 -960 40 -77 14 -78 14 -20
10 33 -2 110 -10 170 -19 138 -19 404 -40 411 -33 3 3 -34 8 -83 12 -110 9
-445 49 -578 70 -238 37 -443 109 -558 197 l-52 40 47 -45 c26 -24 45 -47 41
-50 -3 -4 3 -7 15 -7 11 0 25 -6 29 -14 4 -7 53 -29 108 -49 55 -20 95 -36 90
-36 -13 -1 -181 53 -220 70 -106 47 -225 160 -271 256 -51 109 -65 181 -65
343 -1 207 47 393 158 615 137 272 299 458 868 995 135 127 193 212 217 318
15 67 1 126 -45 194 -39 58 -251 269 -496 494 -102 93 -222 207 -268 254 -253
261 -416 544 -502 875 -25 93 -28 195 -7 195 9 0 16 -20 21 -65 3 -36 11 -65
17 -65 6 0 8 10 4 23 -3 12 -9 32 -12 44 -6 22 14 39 53 46 10 2 27 8 38 14
73 39 434 102 670 118 17 1 62 5 102 9 91 10 548 22 713 19 69 -2 208 -7 310
-13z m378 3 c-15 -2 -42 -2 -60 0 -18 2 -6 4 27 4 33 0 48 -2 33 -4z m-2438
-18 c16 -9 19 -14 9 -15 -8 0 -24 7 -35 15 -24 18 -7 19 26 0z m2595 5 c29 -6
19 -7 -40 -3 -44 3 -82 7 -84 9 -8 7 84 3 124 -6z m878 -42 c-10 -17 -29 -39
-43 -49 -30 -23 -97 -38 -86 -21 4 7 15 12 24 12 31 0 82 39 99 76 10 19 19
31 21 25 2 -6 -5 -25 -15 -43z m-3285 35 c-10 -2 -26 -2 -35 0 -10 3 -2 5 17
5 19 0 27 -2 18 -5z m2530 -10 c-10 -2 -28 -2 -40 0 -13 2 -5 4 17 4 22 1 32
-1 23 -4z m207 -33 c27 -7 27 -8 5 -8 -14 0 -36 4 -50 8 -20 6 -21 8 -5 8 11
0 34 -4 50 -8z m105 -20 l25 -8 -25 0 c-14 0 -36 4 -50 8 l-25 8 25 0 c14 0
36 -4 50 -8z m73 -17 c-7 -2 -19 -2 -25 0 -7 3 -2 5 12 5 14 0 19 -2 13 -5z
m-2904 -4153 c7 -41 14 -85 18 -97 4 -17 1 -23 -11 -23 -26 0 -111 -91 -142
-151 -25 -47 -28 -65 -28 -134 1 -75 1 -78 -10 -42 l-12 39 -10 -61 c-10 -60
-4 -77 14 -44 8 13 12 10 27 -20 9 -20 14 -41 10 -47 -4 -6 1 -22 9 -35 9 -14
12 -25 7 -25 -5 0 -12 4 -16 10 -3 5 -12 7 -21 3 -16 -6 -16 17 1 29 6 4 2 8
-9 8 -11 0 -16 -5 -13 -14 4 -9 -3 -17 -16 -21 -21 -6 -20 -7 7 -15 16 -5 34
-6 40 -3 6 3 8 3 4 -2 -9 -9 6 -19 107 -68 279 -138 437 -190 764 -252 69 -13
142 -29 161 -35 152 -45 629 -79 770 -55 43 8 44 8 30 -11 -13 -17 -13 -18 1
-7 14 11 45 17 164 28 22 2 116 13 210 25 93 11 180 18 193 15 17 -4 22 -2 16
6 -4 7 -3 9 4 5 6 -3 22 -2 37 4 14 5 49 14 78 19 29 5 77 17 107 26 30 9 107
29 170 45 205 51 254 66 323 102 66 35 114 53 130 49 5 -1 6 3 2 9 -3 5 -17
10 -31 10 -14 0 -22 -4 -19 -10 3 -5 -3 -10 -14 -10 -27 0 -52 -11 -46 -20 3
-4 -11 -11 -30 -14 -19 -4 -35 -11 -35 -16 0 -6 -10 -10 -22 -10 -13 0 -45 -7
-71 -15 -26 -8 -46 -11 -43 -6 3 4 24 13 48 20 24 7 59 22 79 32 20 10 39 16
42 13 3 -3 15 4 27 16 11 11 25 18 30 15 6 -4 10 -1 10 4 0 6 8 11 17 11 9 0
66 25 127 56 137 68 163 83 192 112 13 12 27 22 31 22 11 0 37 60 29 67 -3 3
-8 -1 -11 -9 -5 -12 -17 -14 -49 -11 -26 3 -46 1 -50 -6 -14 -21 -34 -11 -40
22 -5 25 -2 36 14 49 l20 17 -22 3 c-13 2 -22 8 -21 14 1 6 -9 16 -22 22 -30
14 -31 12 -4 -19 l21 -24 -23 -3 c-16 -3 -32 7 -55 35 -34 39 -44 60 -21 46 6
-4 18 -8 25 -9 10 -2 10 1 1 12 -6 7 -15 11 -20 8 -5 -3 -9 0 -9 5 0 6 -5 11
-11 11 -5 0 -7 -5 -3 -11 17 -28 -50 4 -79 38 -47 53 -69 73 -100 90 -20 10
-27 19 -22 31 3 9 13 62 22 117 8 55 16 105 18 111 3 11 62 6 530 -51 494 -60
858 -136 1225 -256 260 -86 438 -202 496 -324 27 -58 30 -93 10 -159 -17 -56
-85 -158 -99 -149 -6 3 -7 1 -4 -5 9 -14 -66 -84 -150 -139 -89 -59 -178 -104
-283 -143 -47 -18 -94 -36 -105 -40 -30 -12 -108 -42 -125 -47 -8 -3 -1 4 15
14 17 11 47 25 68 32 20 7 37 16 37 21 0 10 -38 1 -46 -11 -3 -5 -16 -9 -29
-9 -13 0 -25 -4 -27 -9 -7 -19 -361 -127 -558 -170 -87 -19 -412 -79 -555
-102 -33 -5 -82 -14 -110 -18 -225 -38 -453 -68 -740 -97 -82 -8 -166 -17
-185 -20 -119 -16 -450 -47 -590 -54 -181 -9 -304 -6 -575 16 -205 16 -251 17
-220 5 52 -21 347 -36 690 -35 351 1 466 8 745 45 103 14 194 17 217 7 16 -6
16 -7 -2 -8 -11 -2 -23 -2 -27 -1 -4 0 -41 -4 -81 -9 -40 -6 -107 -12 -148
-14 -73 -4 -310 -26 -485 -47 -87 -10 -577 -7 -849 5 -84 4 -106 3 -75 -4 51
-10 355 -30 470 -31 41 0 95 -4 120 -8 l45 -7 -50 -8 c-61 -10 -370 -8 -520 3
-60 5 -117 5 -125 1 -11 -7 -9 -10 10 -14 85 -18 135 -26 161 -26 18 0 28 -4
24 -10 -4 -6 -16 -8 -28 -5 -19 5 -19 4 3 -9 23 -14 21 -14 -43 -12 -37 2 -70
-1 -73 -6 -3 -4 -22 -7 -42 -7 l-37 2 35 7 c34 7 34 7 -12 9 -26 0 -50 6 -53
12 -4 6 -14 8 -22 4 -9 -3 -25 1 -37 8 -29 19 -292 49 -331 39 -26 -8 -21 -10
42 -16 40 -5 71 -11 68 -16 -2 -4 6 -5 18 -3 12 2 49 -1 82 -6 58 -9 57 -9
-30 -6 -99 3 -159 10 -175 20 -5 3 -10 1 -10 -4 0 -14 -39 -14 -93 -1 -23 5
-122 19 -219 30 -191 21 -711 99 -873 130 -165 33 -209 41 -235 47 -14 3 -34
7 -46 8 -36 5 -137 27 -194 42 -30 8 -84 21 -120 29 -69 15 -123 30 -155 44
-11 5 -27 11 -35 13 -12 4 -11 6 3 6 21 1 23 21 2 21 -8 0 -25 5 -38 12 -46
24 -57 28 -71 28 -21 0 -89 30 -82 37 6 7 28 0 196 -55 58 -19 119 -38 135
-43 100 -27 145 -36 145 -28 0 5 -2 9 -5 9 -14 0 -161 42 -170 49 -5 4 -41 16
-80 26 -38 10 -74 21 -80 25 -5 4 -26 11 -45 15 -19 4 -59 18 -88 31 -29 13
-56 24 -60 24 -4 0 -34 14 -67 31 -33 17 -105 54 -160 82 -124 63 -237 135
-230 147 3 5 -18 24 -47 43 -29 19 -68 48 -87 65 -18 18 -37 32 -41 32 -4 0
-17 14 -28 31 -10 17 -23 30 -28 30 -5 -1 -9 3 -9 7 0 5 -8 16 -18 26 -16 17
-17 16 -17 -10 0 -36 55 -97 143 -157 38 -26 86 -63 106 -82 52 -49 107 -82
308 -184 98 -50 172 -91 165 -91 -7 0 -39 12 -70 26 -31 15 -67 30 -79 35 -54
21 -80 32 -103 45 -14 8 -61 32 -106 54 -44 22 -94 52 -109 66 -16 15 -43 32
-60 40 -36 15 -148 121 -176 167 -11 19 -19 26 -20 17 -1 -8 -5 3 -10 25 -8
43 4 136 24 182 20 45 68 116 99 146 120 116 484 277 815 361 112 29 299 68
423 90 47 9 148 27 225 41 226 41 385 63 635 85 129 12 240 23 245 24 17 6 22
-6 34 -84z m59 -211 c16 -32 17 -39 5 -35 -8 3 -21 0 -28 -8 -20 -20 31 -77
105 -118 33 -18 60 -36 60 -40 0 -4 45 -30 101 -58 68 -34 110 -50 128 -47 14
2 20 2 13 0 -7 -3 -9 -9 -6 -15 4 -6 2 -8 -4 -4 -6 3 -14 1 -17 -5 -5 -7 4 -9
26 -7 25 2 33 -1 31 -11 -2 -10 5 -12 30 -7 22 4 28 3 19 -3 -10 -7 0 -11 35
-17 27 -4 51 -10 54 -13 6 -9 211 -48 315 -61 106 -13 419 -40 473 -40 23 0
42 5 42 10 0 6 -17 10 -38 10 -21 0 -63 4 -93 9 -30 5 -110 15 -178 22 -118
11 -202 26 -156 28 11 0 79 -6 150 -14 72 -7 159 -17 195 -21 221 -24 914 18
1065 65 17 5 104 32 195 60 208 63 240 74 240 83 0 5 6 8 13 8 17 0 117 94
133 126 20 37 18 42 -16 51 -21 6 -27 12 -21 22 7 11 17 6 46 -20 20 -19 43
-46 51 -61 13 -25 13 -32 -2 -60 -25 -48 -63 -95 -82 -103 -9 -3 -2 9 17 29
18 19 35 45 37 58 2 13 6 34 9 48 5 21 4 22 -4 5 -17 -40 -127 -127 -206 -165
-83 -40 -326 -119 -373 -121 -23 -1 -22 -3 8 -8 34 -6 34 -7 -25 -19 -183 -39
-373 -67 -555 -82 -145 -12 -552 -4 -744 15 -88 8 -161 13 -163 11 -8 -7 61
-26 96 -26 21 0 41 -4 47 -10 5 -5 50 -12 99 -16 50 -3 93 -8 96 -10 18 -11
326 -14 374 -4 38 8 60 8 72 1 16 -9 15 -10 -6 -11 -44 0 -13 -12 39 -15 27
-2 50 1 50 6 0 5 7 9 15 9 8 0 15 -4 15 -10 0 -5 19 -10 43 -10 30 0 38 3 27
10 -10 6 4 9 45 7 33 -1 73 2 88 6 18 5 26 4 23 -2 -3 -5 0 -11 6 -13 13 -5
-31 -9 -257 -29 -66 -6 -136 -12 -155 -14 -146 -14 -337 -16 -500 -5 -101 7
-191 16 -199 20 -9 5 -56 14 -106 20 -49 6 -117 16 -151 21 -33 5 -82 9 -108
9 -29 0 -45 4 -41 10 4 6 -9 10 -32 10 l-38 -1 30 -14 c41 -18 24 -18 -60 1
-39 9 -83 18 -100 21 -16 2 -48 13 -70 23 -22 9 -56 21 -75 25 -19 4 -43 15
-54 24 -10 9 -21 15 -25 14 -14 -6 -49 12 -101 50 -144 105 -179 204 -119 332
22 47 89 115 113 115 8 0 23 -18 34 -41z m3082 -129 c0 -5 -2 -10 -4 -10 -3 0
-8 5 -11 10 -3 6 -1 10 4 10 6 0 11 -4 11 -10z m-260 -35 c-7 -8 -17 -15 -23
-15 -6 0 -2 7 9 15 25 19 30 19 14 0z m-2477 -122 c-7 -2 -19 -2 -25 0 -7 3
-2 5 12 5 14 0 19 -2 13 -5z m2483 -28 c-31 -24 -36 -27 -126 -67 -103 -46
-273 -95 -361 -103 l-54 -5 34 15 c18 8 39 15 46 15 7 0 23 9 37 20 14 10 40
21 59 23 19 2 46 9 60 15 15 6 45 16 68 22 23 6 50 14 59 17 13 4 12 2 -3 -10
-18 -15 -16 -15 28 -1 26 9 47 19 47 24 0 4 15 11 34 14 18 4 44 15 56 26 13
11 28 20 34 20 6 -1 -2 -11 -18 -25z m-2083 -12 c-7 -2 -19 -2 -25 0 -7 3 -2
5 12 5 14 0 19 -2 13 -5z m-761 -155 c53 -36 62 -45 23 -25 -47 25 -143 104
-156 129 -7 13 10 1 39 -26 28 -28 70 -63 94 -78z m-146 75 c-7 -7 -26 7 -26
19 0 6 6 6 15 -2 9 -7 13 -15 11 -17z m1037 0 c-7 -2 -19 -2 -25 0 -7 3 -2 5
12 5 14 0 19 -2 13 -5z m884 -159 c-3 -3 -12 -4 -19 -1 -8 3 -5 6 6 6 11 1 17
-2 13 -5z m400 -4 c-31 -10 -79 -13 -117 -9 -28 2 56 15 110 17 34 0 34 0 7
-8z m-1567 -20 c24 -8 24 -8 -5 -8 -16 0 -43 4 -60 8 l-30 8 35 0 c19 0 46 -4
60 -8z m97 -16 c-3 -3 -12 -4 -19 -1 -8 3 -5 6 6 6 11 1 17 -2 13 -5z m76 -11
c-7 -2 -21 -2 -30 0 -10 3 -4 5 12 5 17 0 24 -2 18 -5z m110 -10 c-13 -2 -35
-2 -50 0 -16 2 -5 4 22 4 28 0 40 -2 28 -4z m340 -60 c-13 -2 -33 -2 -45 0
-13 2 -3 4 22 4 25 0 35 -2 23 -4z m-3756 -35 c-3 -7 -5 -2 -5 12 0 14 2 19 5
13 2 -7 2 -19 0 -25z m4893 3 c-18 -10 -97 -25 -89 -17 5 5 73 23 94 25 6 0 3
-3 -5 -8z m2840 -80 c-36 -68 -112 -144 -217 -219 -50 -36 -74 -48 -79 -39 -4
7 -4 9 0 5 8 -7 17 -1 54 32 9 9 49 41 87 72 39 31 78 66 87 77 32 38 88 123
88 134 0 6 3 8 6 4 3 -3 -8 -33 -26 -66z m-7710 34 c0 -8 -2 -15 -4 -15 -2 0
-6 7 -10 15 -3 8 -1 15 4 15 6 0 10 -7 10 -15z m4663 -2 c-7 -2 -19 -2 -25 0
-7 3 -2 5 12 5 14 0 19 -2 13 -5z m-234 -28 c-8 -7 -259 -38 -293 -36 -50 3 6
16 117 26 144 14 182 17 176 10z m-4356 -60 c31 -30 61 -55 66 -55 6 0 14 -6
18 -14 10 -18 115 -76 137 -76 9 0 16 -4 16 -8 0 -5 30 -22 68 -37 37 -15 90
-38 117 -51 92 -42 197 -84 210 -84 7 0 15 -3 17 -7 2 -5 39 -20 83 -35 44
-15 107 -37 140 -49 70 -25 175 -57 225 -69 19 -4 69 -18 110 -29 41 -12 91
-24 110 -28 19 -3 42 -9 50 -14 63 -36 -243 42 -495 126 -227 76 -499 187
-679 277 -108 54 -219 140 -247 191 -15 27 -7 21 54 -38z m6895 -190 c-39 -21
-71 -29 -64 -16 12 19 -9 12 -27 -10 -11 -13 -24 -18 -37 -14 -10 3 -21 1 -25
-5 -3 -5 -16 -10 -29 -10 -12 0 -26 -4 -31 -9 -6 -4 -32 -14 -60 -21 -27 -7
-54 -16 -60 -20 -5 -4 -35 -11 -65 -14 -37 -4 -48 -3 -35 3 42 19 351 113 372
113 13 0 21 3 19 7 -2 3 12 6 31 7 33 1 34 0 11 -11z m-6583 -125 c3 -6 -1 -7
-9 -4 -18 7 -21 14 -7 14 6 0 13 -4 16 -10z m6102 -96 c-3 -3 -12 -4 -19 -1
-8 3 -5 6 6 6 11 1 17 -2 13 -5z m-744 -111 c-7 -2 -19 -2 -25 0 -7 3 -2 5 12
5 14 0 19 -2 13 -5z m-4165 -59 c45 -9 81 -19 78 -21 -2 -2 -33 1 -67 7 -35 7
-77 14 -94 17 -16 3 -32 7 -34 9 -9 8 37 4 117 -12z m3702 -4 c-14 -4 -36 -8
-50 -9 -20 -1 -22 1 -10 9 8 5 31 9 50 9 32 -1 33 -2 10 -9z m1067 4 c-3 -3
-12 -4 -19 -1 -8 3 -5 6 6 6 11 1 17 -2 13 -5z m-1234 -21 c-13 -2 -33 -2 -45
0 -13 2 -3 4 22 4 25 0 35 -2 23 -4z m1134 1 c-3 -3 -12 -4 -19 -1 -8 3 -5 6
6 6 11 1 17 -2 13 -5z m-4534 -11 c-7 -2 -19 -2 -25 0 -7 3 -2 5 12 5 14 0 19
-2 13 -5z m3272 -3 c-22 -5 -89 -11 -150 -13 l-110 -6 115 13 c63 7 131 13
150 13 l35 1 -40 -8z m-281 -24 c-3 -8 -19 -14 -37 -14 -18 0 -60 -4 -94 -9
-34 -5 -68 -6 -75 -1 -16 10 -22 8 102 23 58 6 106 13 107 13 1 1 0 -4 -3 -12z
m1353 -2 c-3 -3 -12 -4 -19 -1 -8 3 -5 6 6 6 11 1 17 -2 13 -5z m420 0 c-3 -3
-12 -4 -19 -1 -8 3 -5 6 6 6 11 1 17 -2 13 -5z m-802 -19 c-38 -8 -108 -17
-155 -21 -47 -3 -87 -8 -90 -10 -11 -6 -225 -16 -219 -11 3 4 59 11 125 17 65
6 162 17 214 24 52 7 118 13 145 14 50 0 49 0 -20 -13z m288 -2 c-7 -2 -21 -2
-30 0 -10 3 -4 5 12 5 17 0 24 -2 18 -5z m412 -3 c-11 -5 -27 -9 -35 -9 -9 0
-8 4 5 9 11 5 27 9 35 9 9 0 8 -4 -5 -9z m-2232 -7 c-7 -2 -21 -2 -30 0 -10 3
-4 5 12 5 17 0 24 -2 18 -5z m150 0 c3 -5 -6 -9 -20 -10 -19 -1 -22 1 -12 8
17 11 26 11 32 2z m2024 -9 c-3 -3 -12 -4 -19 -1 -8 3 -5 6 6 6 11 1 17 -2 13
-5z m-2174 -11 c-7 -2 -19 -2 -25 0 -7 3 -2 5 12 5 14 0 19 -2 13 -5z m2447
-3 c0 -5 -5 -10 -11 -10 -5 0 -7 5 -4 10 3 6 8 10 11 10 2 0 4 -4 4 -10z
m-833 -6 c-3 -3 -12 -4 -19 -1 -8 3 -5 6 6 6 11 1 17 -2 13 -5z m-558 -9 c-5
-5 -68 -13 -354 -45 -177 -20 -448 -30 -461 -17 -4 4 26 7 67 8 96 0 581 42
629 53 23 6 124 7 119 1z m986 -5 c-11 -5 -29 -8 -40 -8 -16 0 -15 2 5 8 34
11 60 11 35 0z m355 6 c0 -7 -184 -56 -210 -56 -6 0 -10 5 -10 11 0 5 5 7 10
4 6 -3 16 -3 23 2 38 25 187 56 187 39z m-933 -12 c-3 -3 -12 -4 -19 -1 -8 3
-5 6 6 6 11 1 17 -2 13 -5z m-2392 -24 c3 -5 1 -10 -4 -10 -6 0 -11 5 -11 10
0 6 2 10 4 10 3 0 8 -4 11 -10z m71 -18 c-10 -2 -22 0 -28 6 -6 6 0 7 19 4 21
-5 23 -7 9 -10z m309 8 c-3 -5 -1 -10 6 -10 7 0 10 -2 7 -5 -3 -3 -13 -2 -22
1 -14 5 -15 9 -4 15 17 11 20 11 13 -1z m-1118 -16 c-3 -3 -12 -4 -19 -1 -8 3
-5 6 6 6 11 1 17 -2 13 -5z m3736 -1 c-7 -2 -21 -2 -30 0 -10 3 -4 5 12 5 17
0 24 -2 18 -5z m-3640 -10 c-7 -2 -19 -2 -25 0 -7 3 -2 5 12 5 14 0 19 -2 13
-5z m3543 -10 c-6 -6 -224 -33 -261 -32 l-30 1 30 8 c17 5 55 11 85 14 30 4
78 10 105 14 47 8 81 5 71 -5z m-298 -38 c-4 -4 -76 -14 -323 -45 -85 -11
-192 -13 -183 -5 3 3 56 10 119 15 63 5 159 16 214 24 145 22 187 25 173 11z"/>
<path d="M5963 7093 c15 -2 37 -2 50 0 12 2 0 4 -28 4 -27 0 -38 -2 -22 -4z"/>
<path d="M3591 6444 c0 -11 3 -14 6 -6 3 7 2 16 -1 19 -3 4 -6 -2 -5 -13z"/>
<path d="M3680 6236 c0 -8 4 -17 9 -20 5 -4 7 3 4 14 -6 23 -13 26 -13 6z"/>
<path d="M3751 6104 c0 -11 3 -14 6 -6 3 7 2 16 -1 19 -3 4 -6 -2 -5 -13z"/>
<path d="M3780 6040 c0 -5 5 -10 11 -10 5 0 7 5 4 10 -3 6 -8 10 -11 10 -2 0
-4 -4 -4 -10z"/>
<path d="M3800 6007 c0 -8 7 -17 15 -21 8 -3 16 -16 16 -28 1 -17 3 -18 6 -6
2 10 -5 30 -16 44 -14 18 -21 22 -21 11z"/>
<path d="M4225 5959 c-167 -13 -251 -27 -306 -51 -44 -18 -50 -24 -45 -44 4
-13 17 -35 31 -50 29 -31 31 -29 9 15 -15 30 -15 34 1 51 32 36 120 52 385 71
198 14 277 9 480 -32 369 -72 524 -78 840 -29 177 27 223 31 340 27 140 -5
224 -22 269 -56 20 -15 22 -21 12 -40 -22 -41 -134 -165 -269 -299 -74 -72
-122 -126 -106 -118 15 8 31 13 36 10 4 -3 5 1 3 8 -6 14 37 58 55 58 6 0 10
4 10 8 0 4 26 35 58 68 222 235 255 275 246 297 -7 20 -85 53 -171 73 -88 21
-319 14 -483 -15 -328 -57 -446 -52 -904 39 -107 22 -283 25 -491 9z"/>
<path d="M5807 5789 c7 -7 15 -10 18 -7 3 3 -2 9 -12 12 -14 6 -15 5 -6 -5z"/>
<path d="M3940 5771 c0 -9 169 -201 177 -201 10 0 -56 86 -114 149 -18 19 -33
38 -33 42 0 4 -7 9 -15 13 -8 3 -15 2 -15 -3z"/>
<path d="M5952 5685 c-14 -16 -9 -18 25 -9 13 4 20 10 17 15 -8 13 -27 10 -42
-6z"/>
<path d="M5780 5656 c0 -7 9 -16 21 -19 15 -4 19 -2 15 10 -3 8 -6 17 -6 19 0
2 -7 4 -15 4 -8 0 -15 -6 -15 -14z"/>
<path d="M5572 5623 c-15 -6 -6 -23 12 -23 7 0 13 7 13 15 0 16 -4 17 -25 8z"/>
<path d="M5900 5590 c0 -5 5 -10 10 -10 6 0 10 5 10 10 0 6 -4 10 -10 10 -5 0
-10 -4 -10 -10z"/>
<path d="M4975 5571 c-6 -11 9 -23 19 -14 9 9 7 23 -3 23 -6 0 -12 -4 -16 -9z"/>
<path d="M4165 5510 c27 -27 51 -50 54 -50 8 0 -84 98 -94 99 -5 1 13 -21 40
-49z"/>
<path d="M5365 5540 c-4 -6 3 -10 14 -10 25 0 27 6 6 13 -8 4 -17 2 -20 -3z"/>
<path d="M5568 5543 c7 -3 16 -2 19 1 4 3 -2 6 -13 5 -11 0 -14 -3 -6 -6z"/>
<path d="M5431 5521 c-11 -7 -9 -11 9 -21 27 -14 39 -5 19 15 -9 9 -19 11 -28
6z"/>
<path d="M5780 5511 c0 -5 -8 -7 -19 -4 -10 3 -22 0 -25 -6 -11 -17 40 -13 54
4 9 10 9 15 1 15 -6 0 -11 -4 -11 -9z"/>
<path d="M5230 5459 c0 -18 2 -19 15 -9 15 12 12 30 -6 30 -5 0 -9 -10 -9 -21z"/>
<path d="M5617 5473 c-12 -11 -8 -23 7 -23 8 0 16 7 20 15 5 15 -14 21 -27 8z"/>
<path d="M5710 5465 c6 -8 9 -19 5 -25 -4 -6 4 -10 19 -10 31 0 41 14 21 30
-8 7 -15 9 -15 4 0 -4 -5 -3 -12 4 -17 17 -33 15 -18 -3z"/>
<path d="M5696 5384 c-5 -14 -4 -15 9 -4 17 14 19 20 6 20 -5 0 -12 -7 -15
-16z"/>
<path d="M5851 5374 c-27 -27 -51 -33 -30 -7 13 15 12 15 -8 2 -14 -8 -18 -16
-11 -20 8 -5 6 -12 -5 -23 -8 -9 -18 -16 -21 -16 -6 0 -34 -23 -86 -70 -15
-14 -47 -41 -71 -60 -249 -201 -370 -324 -421 -428 -30 -60 -33 -75 -32 -152
0 -93 22 -156 70 -200 32 -31 30 -21 -6 36 -37 60 -55 136 -46 206 14 113 105
222 396 474 200 174 318 284 305 283 -5 -1 -21 -12 -34 -25z"/>
<path d="M5568 5334 c-34 -18 -35 -22 -5 -19 34 4 34 4 41 20 7 19 -1 18 -36
-1z"/>
<path d="M5525 5281 c-3 -5 -1 -12 5 -16 5 -3 10 1 10 9 0 18 -6 21 -15 7z"/>
<path d="M5010 5270 c-13 -8 -12 -10 3 -10 9 0 17 5 17 10 0 12 -1 12 -20 0z"/>
<path d="M4460 5268 c3 -3 55 -58 115 -120 189 -195 242 -255 249 -279 3 -13
23 -42 43 -64 24 -26 31 -31 20 -13 -28 46 -19 45 24 -1 80 -86 105 -163 77
-241 -14 -42 -26 -57 -118 -148 -85 -84 -50 -74 43 12 59 55 78 86 97 155 17
63 -15 160 -77 233 -56 65 -222 238 -229 238 -3 0 -38 32 -77 72 -67 67 -178
171 -167 156z"/>
<path d="M5460 5200 c0 -13 11 -13 30 0 12 8 11 10 -7 10 -13 0 -23 -4 -23
-10z"/>
<path d="M5211 5190 c-11 -6 -9 -10 8 -19 17 -10 21 -9 21 3 0 20 -13 27 -29
16z"/>
<path d="M5360 5110 c0 -5 6 -10 14 -10 8 0 18 5 21 10 3 6 -3 10 -14 10 -12
0 -21 -4 -21 -10z"/>
<path d="M5168 5053 c7 -3 16 -2 19 1 4 3 -2 6 -13 5 -11 0 -14 -3 -6 -6z"/>
<path d="M5240 5000 c-9 -6 -10 -10 -3 -10 6 0 15 5 18 10 8 12 4 12 -15 0z"/>
<path d="M4947 4920 c18 -19 34 -32 36 -29 2 2 -12 17 -32 33 l-36 30 32 -34z"/>
<path d="M4850 4925 c0 -2 37 -34 83 -72 111 -91 146 -132 168 -201 16 -52 18
-54 18 -22 1 44 -27 106 -68 153 -47 53 -201 163 -201 142z"/>
<path d="M5019 4846 c19 -20 37 -36 39 -36 10 0 -46 64 -59 68 -8 3 2 -12 20
-32z"/>
<path d="M5274 4703 c-3 -16 -8 -34 -10 -42 -14 -43 41 -208 80 -240 9 -8 16
-20 16 -29 0 -8 3 -13 6 -9 4 3 14 -2 23 -12 9 -10 72 -65 141 -122 161 -134
430 -397 537 -524 90 -107 229 -310 283 -413 18 -34 35 -61 37 -58 15 14 -184
325 -304 476 -79 99 -345 365 -488 488 -212 182 -254 230 -293 333 -16 42 -19
70 -16 117 6 64 -1 83 -12 35z"/>
<path d="M5113 4530 c0 -25 2 -35 4 -22 2 12 2 32 0 45 -2 12 -4 2 -4 -23z"/>
<path d="M5100 4358 c0 -28 2 -49 4 -47 8 9 13 99 5 99 -5 0 -9 -23 -9 -52z"/>
<path d="M5350 4306 c0 -2 14 -14 30 -26 17 -12 30 -19 30 -16 0 2 -13 14 -30
26 -16 12 -30 19 -30 16z"/>
<path d="M6391 3235 c0 -5 6 -21 14 -35 8 -14 14 -20 14 -15 0 6 -6 21 -14 35
-8 14 -14 21 -14 15z"/>
<path d="M5015 3194 c-22 -19 -77 -55 -123 -80 -46 -25 -81 -48 -79 -51 9 -8
185 96 227 134 40 37 18 34 -25 -3z"/>
<path d="M5191 3174 c13 -16 39 -19 39 -5 0 5 -11 11 -25 13 -20 4 -23 3 -14
-8z"/>
<path d="M5240 3155 c0 -2 21 -14 48 -26 26 -12 50 -23 55 -26 4 -2 7 -2 7 1
0 6 -95 56 -105 56 -3 0 -5 -2 -5 -5z"/>
<path d="M6440 3111 c0 -6 4 -13 10 -16 6 -3 7 1 4 9 -7 18 -14 21 -14 7z"/>
<path d="M5370 3086 c18 -16 299 -188 390 -238 36 -20 146 -73 245 -118 274
-125 303 -140 355 -187 38 -34 50 -52 55 -85 6 -33 9 -38 17 -24 17 30 -2 74
-50 117 -42 37 -270 156 -382 199 -71 27 -338 168 -435 230 -55 35 -117 72
-137 82 -21 10 -38 23 -38 28 0 6 -8 10 -17 10 -15 0 -15 -2 -3 -14z"/>
<path d="M4757 3044 c-16 -9 -27 -18 -24 -21 6 -5 67 24 67 32 0 8 -14 5 -43
-11z"/>
<path d="M6466 3035 c19 -77 32 -119 33 -105 1 19 -26 120 -34 129 -4 3 -3 -8
1 -24z"/>
<path d="M4678 2999 c-21 -11 -38 -22 -38 -24 0 -3 18 4 40 15 22 11 40 23 40
25 0 7 0 7 -42 -16z"/>
<path d="M4540 2934 c-36 -19 -54 -31 -40 -28 34 9 139 63 120 63 -8 -1 -44
-16 -80 -35z"/>
<path d="M4405 2875 c-27 -14 -39 -22 -25 -19 29 7 90 34 90 40 0 8 -17 3 -65
-21z"/>
<path d="M6512 2850 c0 -19 2 -27 5 -17 2 9 2 25 0 35 -3 9 -5 1 -5 -18z"/>
<path d="M4320 2840 c-8 -5 -10 -10 -5 -10 6 0 17 5 25 10 8 5 11 10 5 10 -5
0 -17 -5 -25 -10z"/>
<path d="M5535 2820 c-3 -5 -2 -10 4 -10 5 0 13 5 16 10 3 6 2 10 -4 10 -5 0
-13 -4 -16 -10z"/>
<path d="M4084 2762 c-189 -63 -272 -107 -316 -167 -28 -37 -30 -44 -24 -102
10 -102 25 -119 19 -22 l-6 86 38 42 c46 51 138 97 314 156 126 43 179 65 156
64 -5 0 -87 -26 -181 -57z"/>
<path d="M6523 2710 c0 -41 2 -58 4 -37 2 20 2 54 0 75 -2 20 -4 3 -4 -38z"/>
<path d="M3703 2600 c0 -25 2 -35 4 -22 2 12 2 32 0 45 -2 12 -4 2 -4 -23z"/>
<path d="M5976 2625 c4 -8 12 -15 20 -15 8 0 11 6 8 15 -4 8 -12 15 -20 15 -8
0 -11 -6 -8 -15z"/>
<path d="M6519 2563 c-7 -46 -8 -75 -2 -70 8 8 15 77 8 77 -3 0 -6 -3 -6 -7z"/>
<path d="M6501 2463 c0 -6 -4 -20 -7 -30 -5 -14 -4 -15 5 -7 7 7 11 20 8 30
-3 11 -5 14 -6 7z"/>
<path d="M3731 2374 c0 -11 3 -14 6 -6 3 7 2 16 -1 19 -3 4 -6 -2 -5 -13z"/>
<path d="M3740 2341 c0 -6 4 -13 10 -16 6 -3 7 1 4 9 -7 18 -14 21 -14 7z"/>
<path d="M6271 2294 c0 -11 3 -14 6 -6 3 7 2 16 -1 19 -3 4 -6 -2 -5 -13z"/>
<path d="M3770 2270 c12 -16 24 -30 26 -30 3 0 -4 14 -16 30 -12 17 -24 30
-26 30 -3 0 4 -13 16 -30z"/>
<path d="M4070 2286 c0 -2 9 -6 20 -9 11 -3 18 -1 14 4 -5 9 -34 13 -34 5z"/>
<path d="M6429 2273 c-13 -16 -12 -17 4 -4 16 13 21 21 13 21 -2 0 -10 -8 -17
-17z"/>
<path d="M5978 2253 c7 -3 16 -2 19 1 4 3 -2 6 -13 5 -11 0 -14 -3 -6 -6z"/>
<path d="M6058 2253 c7 -3 16 -2 19 1 4 3 -2 6 -13 5 -11 0 -14 -3 -6 -6z"/>
<path d="M6335 2189 c-22 -23 -74 -64 -115 -90 -41 -27 -69 -49 -62 -49 7 0
25 8 40 18 15 11 46 31 69 47 48 31 90 70 104 97 14 27 7 22 -36 -23z"/>
<path d="M6030 2190 c-13 -8 -12 -10 3 -10 9 0 17 5 17 10 0 12 -1 12 -20 0z"/>
<path d="M4290 2170 c0 -12 35 -31 43 -24 3 3 3 12 0 20 -6 16 -43 19 -43 4z"/>
<path d="M5648 2153 c7 -3 16 -2 19 1 4 3 -2 6 -13 5 -11 0 -14 -3 -6 -6z"/>
<path d="M5805 2149 c-4 -6 -4 -13 -1 -16 8 -8 36 5 36 17 0 13 -27 13 -35 -1z"/>
<path d="M5613 2122 c-7 -4 -9 -13 -4 -21 10 -16 31 -6 31 15 0 16 -9 18 -27
6z"/>
<path d="M4672 2111 c-11 -7 -11 -9 1 -14 9 -3 18 1 21 9 6 16 -2 18 -22 5z"/>
<path d="M4800 2110 c18 -12 30 -13 30 -2 0 4 -10 9 -22 9 -18 2 -20 0 -8 -7z"/>
<path d="M5998 2113 c6 -2 18 -2 25 0 6 3 1 5 -13 5 -14 0 -19 -2 -12 -5z"/>
<path d="M4355 2090 c3 -5 8 -10 11 -10 2 0 4 5 4 10 0 6 -5 10 -11 10 -5 0
-7 -4 -4 -10z"/>
<path d="M4940 2091 c0 -5 5 -13 10 -16 6 -3 10 -2 10 4 0 5 -4 13 -10 16 -5
3 -10 2 -10 -4z"/>
<path d="M5730 2060 c0 -5 4 -10 9 -10 6 0 13 5 16 10 3 6 -1 10 -9 10 -9 0
-16 -4 -16 -10z"/>
<path d="M5580 2050 c-9 -6 -10 -10 -3 -10 6 0 15 5 18 10 8 12 4 12 -15 0z"/>
<path d="M5685 2050 c-3 -5 3 -10 14 -10 12 0 21 5 21 10 0 6 -6 10 -14 10 -8
0 -18 -4 -21 -10z"/>
<path d="M5470 2034 c0 -3 6 -12 14 -20 11 -11 21 -12 42 -3 23 8 25 12 14 19
-16 11 -70 14 -70 4z"/>
<path d="M5318 1913 c34 -2 88 -2 120 0 31 2 3 3 -63 3 -66 0 -92 -1 -57 -3z"/>
<path d="M5143 1903 c9 -2 25 -2 35 0 9 3 1 5 -18 5 -19 0 -27 -2 -17 -5z"/>
<path d="M6665 2280 c4 -6 11 -8 16 -5 14 9 11 15 -7 15 -8 0 -12 -5 -9 -10z"/>
<path d="M6724 2265 c11 -8 26 -15 33 -15 7 0 13 -4 13 -10 0 -5 9 -10 20 -10
11 0 20 -4 20 -10 0 -5 7 -10 16 -10 23 0 0 19 -56 48 -51 25 -75 29 -46 7z"/>
<path d="M6680 2256 c0 -2 8 -10 18 -17 15 -13 16 -12 3 4 -13 16 -21 21 -21
13z"/>
<path d="M6725 2220 c-3 -5 -1 -10 4 -10 6 0 11 5 11 10 0 6 -2 10 -4 10 -3 0
-8 -4 -11 -10z"/>
<path d="M6870 2190 c14 -4 21 -9 15 -9 -15 -2 26 -31 43 -31 9 0 4 10 -14 25
-16 14 -38 25 -49 24 -17 -1 -16 -2 5 -9z"/>
<path d="M3258 2053 c7 -3 16 -2 19 1 4 3 -2 6 -13 5 -11 0 -14 -3 -6 -6z"/>
<path d="M7045 2001 c-10 -17 12 -21 25 -6 10 12 10 15 -3 15 -9 0 -18 -4 -22
-9z"/>
<path d="M6970 1910 c-13 -8 -13 -10 2 -10 9 0 20 5 23 10 8 13 -5 13 -25 0z"/>
<path d="M6900 1864 c0 -14 3 -14 15 -4 8 7 15 14 15 16 0 2 -7 4 -15 4 -8 0
-15 -7 -15 -16z"/>
<path d="M1143 1835 c0 -22 2 -30 4 -17 2 12 2 30 0 40 -3 9 -5 -1 -4 -23z"/>
<path d="M6874 1840 c-8 -8 -37 -16 -66 -19 -5 -1 -8 -6 -8 -12 0 -6 5 -7 13
-2 6 4 21 9 32 11 17 2 58 32 44 32 -3 0 -9 -4 -15 -10z"/>
<path d="M1150 1787 c0 -4 11 -24 24 -45 24 -38 136 -150 136 -136 0 4 12 -4
28 -18 30 -29 140 -98 156 -98 5 0 -16 15 -47 34 -31 19 -64 42 -73 50 -8 9
-18 16 -22 16 -10 0 -110 98 -159 155 -24 28 -43 47 -43 42z"/>
<path d="M8684 1592 c-57 -54 -230 -147 -374 -203 -47 -18 -80 -34 -73 -36 21
-7 209 74 314 135 57 33 169 111 169 117 0 11 -17 4 -36 -13z"/>
<path d="M6128 1533 c7 -3 16 -2 19 1 4 3 -2 6 -13 5 -11 0 -14 -3 -6 -6z"/>
<path d="M6010 1510 c-12 -8 -10 -10 10 -10 14 0 32 5 40 10 12 8 10 10 -10
10 -14 0 -32 -5 -40 -10z"/>
<path d="M5847 1490 c-15 -5 -70 -9 -123 -9 -53 -1 -102 -4 -109 -8 -17 -10
100 -8 214 2 53 5 79 10 70 16 -16 10 -15 10 -52 -1z"/>
<path d="M1537 1469 c7 -7 15 -10 18 -7 3 3 -2 9 -12 12 -14 6 -15 5 -6 -5z"/>
<path d="M5505 1460 c-11 -5 -46 -9 -77 -9 -31 -1 -60 -6 -64 -12 -5 -8 6 -10
37 -6 24 4 72 9 107 13 34 4 65 11 68 15 7 11 -45 10 -71 -1z"/>
<path d="M5318 1433 c6 -2 18 -2 25 0 6 3 1 5 -13 5 -14 0 -19 -2 -12 -5z"/>
<path d="M2003 1270 c20 -13 270 -91 347 -108 25 -6 87 -22 139 -37 51 -14 99
-24 105 -22 6 3 -16 12 -49 21 -33 10 -82 24 -110 31 -27 8 -133 38 -234 66
-102 28 -192 53 -200 56 -11 3 -10 1 2 -7z"/>
<path d="M2618 1083 c6 -2 18 -2 25 0 6 3 1 5 -13 5 -14 0 -19 -2 -12 -5z"/>
<path d="M2903 1083 c9 -2 23 -2 30 0 6 3 -1 5 -18 5 -16 0 -22 -2 -12 -5z"/>
<path d="M2951 1076 c3 -3 33 -10 68 -14 34 -5 58 -5 54 -1 -10 9 -131 24
-122 15z"/>
<path d="M3090 1056 c0 -17 544 -87 830 -106 91 -6 171 -13 178 -15 6 -3 12
-1 12 4 0 4 -62 13 -137 20 -258 22 -528 52 -696 77 -178 25 -187 26 -187 20z"/>
<path d="M2951 995 c8 -7 201 -36 206 -31 6 6 -20 12 -114 26 -79 11 -99 12
-92 5z"/>
<path d="M4158 973 c17 -2 47 -2 65 0 17 2 3 4 -33 4 -36 0 -50 -2 -32 -4z"/>
<path d="M5873 973 c15 -2 37 -2 50 0 12 2 0 4 -28 4 -27 0 -38 -2 -22 -4z"/>
<path d="M4313 963 c15 -2 39 -2 55 0 15 2 2 4 -28 4 -30 0 -43 -2 -27 -4z"/>
<path d="M5768 963 c7 -3 16 -2 19 1 4 3 -2 6 -13 5 -11 0 -14 -3 -6 -6z"/>
<path d="M4448 953 c18 -2 45 -2 60 0 15 2 0 4 -33 4 -33 0 -45 -2 -27 -4z"/>
<path d="M4148 933 c18 -2 45 -2 60 0 15 2 0 4 -33 4 -33 0 -45 -2 -27 -4z"/>
<path d="M5528 933 c7 -3 16 -2 19 1 4 3 -2 6 -13 5 -11 0 -14 -3 -6 -6z"/>
<path d="M4333 923 c9 -2 25 -2 35 0 9 3 1 5 -18 5 -19 0 -27 -2 -17 -5z"/>
<path d="M3223 903 c9 -2 25 -2 35 0 9 3 1 5 -18 5 -19 0 -27 -2 -17 -5z"/>
<path d="M4643 903 c9 -2 23 -2 30 0 6 3 -1 5 -18 5 -16 0 -22 -2 -12 -5z"/>
<path d="M3039 887 c5 -5 21 -7 37 -5 27 3 26 4 -8 9 -22 3 -34 1 -29 -4z"/>
<path d="M3704 821 c3 -4 47 -14 98 -21 51 -6 118 -16 148 -20 60 -8 120 -3
120 11 0 5 -17 9 -37 9 -21 0 -92 7 -158 15 -136 17 -178 19 -171 6z"/>
<path d="M4273 783 c9 -2 25 -2 35 0 9 3 1 5 -18 5 -19 0 -27 -2 -17 -5z"/>
<path d="M4358 773 c7 -3 16 -2 19 1 4 3 -2 6 -13 5 -11 0 -14 -3 -6 -6z"/>
<path d="M3601 2185 c-1 -15 20 -35 37 -35 12 0 12 3 2 15 -7 8 -16 13 -20 10
-5 -3 -11 1 -13 7 -3 7 -6 8 -6 3z"/>
<path d="M3787 2059 c7 -7 15 -10 18 -7 3 3 -2 9 -12 12 -14 6 -15 5 -6 -5z"/>
<path d="M3560 1996 c0 -2 7 -7 16 -10 8 -3 12 -2 9 4 -6 10 -25 14 -25 6z"/>
<path d="M3660 1940 c19 -17 39 -29 45 -26 6 2 22 -2 36 -10 13 -7 33 -13 44
-13 16 0 15 3 -8 15 -16 9 -40 17 -54 18 -13 2 -32 9 -42 18 -9 8 -26 17 -36
21 -12 4 -6 -5 15 -23z"/>
<path d="M3810 1881 c0 -6 8 -11 18 -11 10 0 21 -3 25 -6 10 -11 141 -53 149
-48 4 2 9 0 13 -6 3 -5 21 -10 39 -10 17 0 36 -4 41 -9 13 -12 108 -31 148
-30 20 1 0 8 -53 19 -113 25 -260 66 -315 90 -40 17 -65 21 -65 11z"/>
<path d="M5743 1852 c-68 -8 -123 -19 -123 -24 0 -6 12 -8 28 -5 15 3 83 12
150 19 73 7 116 15 105 19 -22 9 -9 10 -160 -9z"/>
<path d="M3908 1803 c6 -2 18 -2 25 0 6 3 1 5 -13 5 -14 0 -19 -2 -12 -5z"/>
<path d="M4490 1800 c8 -5 22 -9 30 -9 10 0 8 3 -5 9 -27 12 -43 12 -25 0z"/>
<path d="M5270 1720 c-9 -6 -10 -10 -3 -10 6 0 15 5 18 10 8 12 4 12 -15 0z"/>
<path d="M6178 1883 c7 -3 16 -2 19 1 4 3 -2 6 -13 5 -11 0 -14 -3 -6 -6z"/>
<path d="M6088 1863 c6 -2 18 -2 25 0 6 3 1 5 -13 5 -14 0 -19 -2 -12 -5z"/>
<path d="M7925 740 c-27 -10 -61 -21 -75 -24 -14 -3 -34 -12 -45 -21 -19 -16
-19 -16 10 -10 72 14 164 47 169 61 6 17 5 17 -59 -6z"/>
<path d="M7705 670 c-3 -6 1 -7 9 -4 18 7 21 14 7 14 -6 0 -13 -4 -16 -10z"/>
<path d="M3550 481 c14 -4 43 -11 65 -14 38 -6 39 -5 15 8 -14 8 -43 14 -65
14 -34 -1 -36 -2 -15 -8z"/>
<path d="M3698 463 c7 -3 16 -2 19 1 4 3 -2 6 -13 5 -11 0 -14 -3 -6 -6z"/>
<path d="M3871 436 c10 -9 79 -14 74 -5 -4 5 -22 9 -42 9 -20 0 -34 -2 -32 -4z"/>
<path d="M4015 416 c28 -7 56 -11 63 -8 19 7 12 9 -53 15 l-60 5 50 -12z"/>
<path d="M4170 400 c0 -5 17 -10 38 -9 33 1 34 2 12 9 -36 11 -50 11 -50 0z"/>
<path d="M4290 390 c0 -5 7 -10 16 -10 8 0 12 5 9 10 -3 6 -10 10 -16 10 -5 0
-9 -4 -9 -10z"/>
<path d="M4395 380 c36 -11 284 -40 328 -39 42 2 -145 28 -308 44 -41 4 -45 3
-20 -5z"/>
<path d="M4803 331 c37 -12 358 -21 422 -12 38 6 20 8 -75 9 -69 1 -181 4
-250 6 -82 4 -115 3 -97 -3z"/>
</g>
</svg>
